<svg xmlns:dc="http://purl.org/dc/elements/1.1/" xmlns:cc="http://creativecommons.org/ns#" xmlns:rdf="http://www.w3.org/1999/02/22-rdf-syntax-ns#" xmlns:svg="http://www.w3.org/2000/svg" xmlns="http://www.w3.org/2000/svg" viewBox="0 0 400 400" height="400" width="400" xml:space="preserve" id="svg2" version="1.1"><metadata id="metadata8"><rdf:rdf><cc:work rdf:about=""><dc:format>image/svg+xml</dc:format><dc:type rdf:resource="http://purl.org/dc/dcmitype/StillImage"></dc:type></cc:work></rdf:rdf></metadata><defs id="defs6"></defs><g transform="matrix(1.3333333,0,0,-1.3333333,0,400)" id="g10"><g transform="scale(0.1)" id="g12"><path id="path14" style="/* fill:#231f20; */fill-opacity:1;fill-rule:nonzero;stroke:none;" d="M 2539.18,1385.02 C 2479.15,849.23 2004.9,434.289 1446.39,470.129 931.406,503.16 516.711,917.871 483.672,1432.85 c -38.359,597.88 439.844,1099.19 1029.878,1099.19 78.39,0 149.09,-7.24 218.27,-21.98 42.37,-9.03 86.4,4.1 116.99,34.78 v 0 c 71.82,72.04 34.9,194.92 -64.67,215.74 -88.86,18.58 -179.73,29.87 -270.59,29.87 -709.417,0 -1290.445,-581.02 -1290.445,-1290.45 0,-709.418 581.028,-1290.449 1290.445,-1290.449 661.24,0 1210.92,504.781 1282.54,1147.799 8.47,76.02 -50.73,142.65 -127.21,142.65 h -2.45 c -65.64,0 -119.94,-49.75 -127.25,-114.98 z M 894.004,1654.48 v 0 c -49.668,-49.89 -49.578,-130.58 0.207,-180.36 L 1384.35,983.98 2584.51,2184.15 c 49.87,49.87 49.87,130.71 0,180.57 l -0.23,0.23 c -49.88,49.87 -130.74,49.85 -180.6,-0.03 L 1384.35,1344.99 1074.79,1654.67 c -49.94,49.95 -130.95,49.87 -180.786,-0.19"></path></g></g></svg>